<svg xmlns="http://www.w3.org/2000/svg" viewBox="0 0 512 512" fill="#007bff">
  <defs>
    <linearGradient id="gradient" x1="0%" y1="0%" x2="100%" y2="100%">
      <stop offset="0%" stop-color="#007bff" />
      <stop offset="100%" stop-color="#0056b3" />
    </linearGradient>
  </defs>
  <path d="M256 0C114.6 0 0 35.8 0 80v352c0 8.8 7.2 16 16 16h32c8.8 0 16-7.2 16-16v-48H448v48c0 8.8 7.2 16 16 16h32c8.8 0 16-7.2 16-16V80c0-44.2-114.6-80-256-80zM64 128c0-17.7 14.3-32 32-32h320c17.7 0 32 14.3 32 32v96c0 17.7-14.3 32-32 32H96c-17.7 0-32-14.3-32-32v-96zm24 288c-13.3 0-24-10.7-24-24s10.7-24 24-24 24 10.7 24 24-10.7 24-24 24zm360 0c-13.3 0-24-10.7-24-24s10.7-24 24-24 24 10.7 24 24-10.7 24-24 24zM416 112c8.8 0 16 7.2 16 16v16c0 8.8-7.2 16-16 16h-32c-8.8 0-16-7.2-16-16v-16c0-8.8 7.2-16 16-16h32zM96 160c0-8.8 7.2-16 16-16h192c8.8 0 16 7.2 16 16v16c0 8.8-7.2 16-16 16H112c-8.8 0-16-7.2-16-16v-16z" fill="url(#gradient)" />
</svg> 